<svg width="24" height="22" viewBox="0 0 24 22" fill="none" xmlns="http://www.w3.org/2000/svg">
<path d="M22.6139 17.3V11.434C22.6139 10.1786 22.6139 9.55095 22.4406 8.98145C22.2871 8.47728 22.0355 8.00841 21.7003 7.60178C21.3216 7.14245 20.7986 6.7954 19.7526 6.10128L15.6038 3.3482C14.3245 2.4993 13.6849 2.07485 12.9939 1.9099C12.3833 1.76412 11.7469 1.76412 11.1363 1.9099C10.4453 2.07485 9.80569 2.4993 8.52642 3.3482L4.37759 6.10128L4.37758 6.10129C3.33157 6.7954 2.80857 7.14245 2.42989 7.60178C2.09466 8.00841 1.84308 8.47728 1.68962 8.98145C1.51627 9.55095 1.51627 10.1786 1.51627 11.434V17.3C1.51627 18.4201 1.51627 18.9802 1.73425 19.408C1.926 19.7843 2.23196 20.0903 2.60828 20.282C3.03611 20.5 3.59616 20.5 4.71626 20.5H5.83778C5.95384 20.5 6.01187 20.5 6.06091 20.4976C7.08832 20.4471 7.90989 19.6255 7.96037 18.5981C7.96278 18.5491 7.96278 18.4911 7.96278 18.375V16.1023C7.96278 13.8367 9.79945 12 12.0651 12C14.3308 12 16.1674 13.8367 16.1674 16.1023V18.375C16.1674 18.4911 16.1674 18.5491 16.1698 18.5981C16.2203 19.6255 17.0419 20.4471 18.0693 20.4976C18.1183 20.5 18.1764 20.5 18.2924 20.5H19.4139C20.534 20.5 21.0941 20.5 21.5219 20.282C21.8982 20.0903 22.2042 19.7843 22.396 19.408C22.6139 18.9802 22.6139 18.4201 22.6139 17.3Z" stroke="#828282" stroke-width="1.8"/>
</svg>
