<svg width="16" height="16" viewBox="0 0 16 16" fill="none" xmlns="http://www.w3.org/2000/svg">
<path d="M6.73695 7.94954L0.0251111 14.6612C-0.00836966 14.6947 -0.00837061 14.749 0.0251097 14.7825L1.1163 15.8737C1.14978 15.9071 1.20406 15.9071 1.23754 15.8737L7.94938 9.16194L14.7625 15.9749C14.7959 16.0084 14.8502 16.0084 14.8837 15.9749L15.9749 14.8837C16.0084 14.8502 16.0084 14.796 15.9749 14.7625L9.16181 7.94954L15.874 1.23752C15.9074 1.20404 15.9074 1.14975 15.874 1.11628L14.7828 0.0251098C14.7493 -0.00836991 14.695 -0.00836992 14.6615 0.0251097L7.94938 6.73713L1.33847 0.126347C1.30499 0.0928675 1.25071 0.092867 1.21722 0.126347L0.126038 1.21751C0.092558 1.25099 0.092558 1.30527 0.126038 1.33875L6.73695 7.94954Z" fill="#BDBDBD"/>
</svg>
