<svg width="24" height="24" viewBox="0 0 24 24" fill="none" xmlns="http://www.w3.org/2000/svg">
<g clip-path="url(#clip0_1045_3054)">
<path fill-rule="evenodd" clip-rule="evenodd" d="M14.4162 15.9959C12.9029 17.1722 11.0014 17.8727 8.93635 17.8727C4.00094 17.8727 0 13.8718 0 8.93635C0 4.00094 4.00094 0 8.93635 0C13.8718 0 17.8727 4.00094 17.8727 8.93635C17.8727 11.0014 17.1722 12.9029 15.9959 14.4162L23.6728 22.0931C24.1091 22.5293 24.1091 23.2366 23.6728 23.6728C23.2366 24.1091 22.5293 24.1091 22.0931 23.6728L14.4162 15.9959ZM15.8727 8.93635C15.8727 12.7672 12.7672 15.8727 8.93635 15.8727C5.10551 15.8727 2 12.7672 2 8.93635C2 5.10551 5.10551 2 8.93635 2C12.7672 2 15.8727 5.10551 15.8727 8.93635Z" fill="#E0E0E0"/>
</g>
<defs>
<clipPath id="clip0_1045_3054">
<rect width="24" height="24" fill="white"/>
</clipPath>
</defs>
</svg>
