<svg width="20" height="20" viewBox="0 0 20 20" fill="none" xmlns="http://www.w3.org/2000/svg">
<circle cx="9.99984" cy="10" r="8.33333" transform="rotate(60 9.99984 10)" stroke="white" stroke-width="2"/>
<circle cx="12.0002" cy="12" r="3" fill="white"/>
<path d="M9.99976 6.00012C11.5577 6.00012 12.9087 6.68648 14.012 7.58857C15.068 8.45201 15.8384 9.46696 16.2636 10.1021C15.7235 10.6991 14.7707 11.6729 13.6311 12.5034C12.4206 13.3856 11.1422 14.0001 9.99976 14.0001C8.85727 14.0001 7.57896 13.3856 6.36845 12.5034C5.2288 11.6729 4.27598 10.6991 3.73597 10.1021C4.16111 9.46697 4.93147 8.45201 5.98749 7.58857C7.09077 6.68648 8.44186 6.00012 9.99976 6.00012Z" stroke="white" stroke-width="2"/>
</svg>
