<svg width="69" height="50" viewBox="0 0 69 50" fill="none" xmlns="http://www.w3.org/2000/svg">
<path fill-rule="evenodd" clip-rule="evenodd" d="M21.944 15.4538V1.06557H7.73956V29.556L21.944 15.4538ZM6.75142 31.9262V0.0819664H22.9322V15.2459H45.5564L61.7165 31.25H37.4248L22.4381 16.3525L6.75142 31.9262ZM37.8337 30.2664L23.7128 16.2295H45.1486L59.3223 30.2664H37.8337Z" fill="#092C4C"/>
<path d="M45.5975 15.2869L60.7284 0.0819664H37.8571L22.7675 15.2869H45.5975Z" fill="url(#paint0_linear_1058_1741)"/>
<path d="M0 41.9117V41.4636C0 39.8827 0.333639 38.7438 1.00092 38.0467C1.6682 37.3496 2.74395 37.0011 4.22818 37.0011H4.41527C5.43801 37.0011 6.21131 37.1629 6.73515 37.4866V33.5656H9.95306V42.3598C9.95306 43.7913 9.57889 44.8244 8.83053 45.4592C8.08218 46.0941 6.87235 46.4115 5.20104 46.4115H4.75203C3.08071 46.4115 1.87088 46.0567 1.12253 45.3472C0.374177 44.6377 0 43.4925 0 41.9117ZM3.59208 43.3867C3.81659 43.6606 4.27807 43.7975 4.97653 43.7975C5.67499 43.7975 6.13648 43.6637 6.36098 43.396C6.58548 43.1284 6.69773 42.5838 6.69773 41.7623C6.69773 40.891 6.57613 40.309 6.33291 40.0165C6.0897 39.724 5.60639 39.5778 4.88299 39.5778C4.22194 39.5778 3.7854 39.7147 3.57337 39.9885C3.36134 40.2624 3.25532 40.8287 3.25532 41.6876C3.25532 42.5465 3.36758 43.1129 3.59208 43.3867Z" fill="#6D6E71"/>
<path d="M10.4769 41.2395C10.4769 39.7458 10.8511 38.6597 11.5994 37.9813C12.3478 37.3029 13.5327 36.9638 15.1541 36.9638H15.6031C18.7212 36.9638 20.2803 38.3268 20.2803 41.0528V45.7206C20.2803 47.289 19.9186 48.3875 19.1952 49.0161C18.4718 49.6447 17.2432 49.959 15.5096 49.959H15.0605C13.514 49.959 12.3914 49.7007 11.693 49.1842C10.9945 48.6676 10.6453 47.8429 10.6453 46.7102H13.8258C13.8258 47.3824 14.3621 47.7185 15.4347 47.7185C16.1082 47.7185 16.5541 47.6033 16.7724 47.373C16.9907 47.1428 17.0998 46.704 17.0998 46.0567V45.4219C16.5635 45.758 15.7964 45.926 14.7986 45.926H14.6115C13.1897 45.926 12.1451 45.5868 11.4778 44.9084C10.8105 44.23 10.4769 43.1564 10.4769 41.6876V41.2395ZM13.7322 41.5196C13.7322 42.2913 13.8382 42.8079 14.0503 43.0693C14.2623 43.3307 14.6739 43.4614 15.2851 43.4614C15.9586 43.4614 16.4169 43.3213 16.6602 43.0413C16.9034 42.7612 17.025 42.2291 17.025 41.4449C17.025 40.698 16.9127 40.2001 16.6882 39.9512C16.4637 39.7022 16.0272 39.5777 15.3786 39.5777C14.73 39.5777 14.2935 39.7084 14.069 39.9698C13.8445 40.2312 13.7322 40.7478 13.7322 41.5196Z" fill="#6D6E71"/>
<path d="M24.2465 33.5656V37.4305C24.7829 37.1442 25.5187 37.0011 26.4542 37.0011H26.6413C28.0756 37.0011 29.1077 37.2936 29.7376 37.8787C30.3674 38.4637 30.6824 39.4159 30.6824 40.7354V46.2621H27.4645V41.1835C27.4645 40.5487 27.3553 40.1223 27.137 39.9045C26.9188 39.6867 26.4916 39.5777 25.8555 39.5777C25.2194 39.5777 24.7922 39.6867 24.5739 39.9045C24.3557 40.1223 24.2465 40.5487 24.2465 41.1835V46.2621H21.0286V33.5656H24.2465Z" fill="#6D6E71"/>
<path d="M31.3185 41.9117V41.4635C31.3185 39.8703 31.6926 38.722 32.441 38.0187C33.1893 37.3154 34.4054 36.9638 36.0892 36.9638H36.5382C38.222 36.9638 39.4381 37.3154 40.1864 38.0187C40.9348 38.722 41.3089 39.8703 41.3089 41.4635V41.9117C41.3089 43.505 40.9348 44.6532 40.1864 45.3565C39.4381 46.0598 38.222 46.4115 36.5382 46.4115H36.0892C34.4054 46.4115 33.1893 46.0598 32.441 45.3565C31.6926 44.6532 31.3185 43.505 31.3185 41.9117ZM34.9292 43.3867C35.1538 43.6605 35.6152 43.7975 36.3137 43.7975C37.0122 43.7975 37.4768 43.6605 37.7075 43.3867C37.9382 43.1129 38.0536 42.5465 38.0536 41.6876C38.0536 40.8287 37.9414 40.2624 37.7169 39.9885C37.4799 39.7147 37.0122 39.5777 36.3137 39.5777C35.6152 39.5777 35.1506 39.7147 34.9199 39.9885C34.6892 40.2624 34.5738 40.8287 34.5738 41.6876C34.5738 42.5465 34.6923 43.1129 34.9292 43.3867Z" fill="#6D6E71"/>
<path d="M43.0489 37.8413C43.7473 37.2563 44.8761 36.9638 46.4351 36.9638H46.8842C48.2437 36.9638 49.2414 37.2438 49.8775 37.804C50.5136 37.2438 51.5114 36.9638 52.8709 36.9638H53.32C54.879 36.9638 56.0109 37.2563 56.7156 37.8413C57.4203 38.4263 57.7726 39.3661 57.7726 40.6607V46.2621H54.5547V41.1461C54.5547 40.5238 54.4518 40.1068 54.246 39.8952C54.0402 39.6835 53.6318 39.5777 53.0206 39.5777C52.4095 39.5777 52.001 39.6835 51.7952 39.8952C51.5894 40.1068 51.4865 40.5238 51.4865 41.1461V46.2621H48.2686V41.1461C48.2686 40.5238 48.1657 40.1068 47.9599 39.8952C47.7541 39.6835 47.3456 39.5777 46.7345 39.5777C46.1233 39.5777 45.7149 39.6835 45.5091 39.8952C45.3033 40.1068 45.2004 40.5238 45.2004 41.1461V46.2621H41.9825V40.6607C41.9825 39.3661 42.3379 38.4263 43.0489 37.8413Z" fill="#6D6E71"/>
<path d="M58.4462 41.9117V41.4635C58.4462 39.8703 58.8203 38.722 59.5687 38.0187C60.317 37.3154 61.5331 36.9638 63.2169 36.9638H63.6659C65.2499 36.9638 66.4067 37.3403 67.1364 38.0934C67.866 38.8464 68.2308 40.0445 68.2308 41.6876V42.5652H61.5518C61.6017 43.2 61.767 43.6294 62.0476 43.8535C62.3282 44.0775 62.8302 44.1896 63.5536 44.1896C64.1149 44.1896 64.5171 44.118 64.7604 43.9748C65.0036 43.8317 65.1252 43.5859 65.1252 43.2373H68.2308C68.2308 44.3203 67.8722 45.12 67.1551 45.6366C66.4379 46.1532 65.2998 46.4115 63.7407 46.4115H63.2917C61.583 46.4115 60.3482 46.0598 59.5874 45.3565C58.8266 44.6532 58.4462 43.505 58.4462 41.9117ZM61.5705 40.6233H65.2C65.1501 40.1005 65.0067 39.7364 64.7697 39.5311C64.5327 39.3257 64.1087 39.223 63.4975 39.223C62.849 39.223 62.3844 39.3226 62.1037 39.5217C61.8231 39.7209 61.6453 40.0881 61.5705 40.6233Z" fill="#6D6E71"/>
<defs>
<linearGradient id="paint0_linear_1058_1741" x1="41.7479" y1="0.0819664" x2="41.7479" y2="15.2869" gradientUnits="userSpaceOnUse">
<stop stop-color="#3686CF"/>
<stop offset="1" stop-color="#092C4C"/>
</linearGradient>
</defs>
</svg>
